<?xml version="1.0" standalone="no"?>
<!DOCTYPE svg PUBLIC "-//W3C//DTD SVG 20010904//EN"
 "http://www.w3.org/TR/2001/REC-SVG-20010904/DTD/svg10.dtd">
<svg version="1.0" xmlns="http://www.w3.org/2000/svg"
 width="300.000000pt" height="300.000000pt" viewBox="0 0 300.000000 300.000000"
 preserveAspectRatio="xMidYMid meet">
<metadata>
Created by potrace 1.14, written by Peter Selinger 2001-2017
</metadata>
<g transform="translate(0.000000,300.000000) scale(0.100000,-0.100000)"
fill="#000000" stroke="none">
<path d="M1376 2923 c-3 -3 -23 -7 -45 -9 -85 -8 -314 -96 -362 -140 -8 -8
-19 -14 -23 -14 -28 0 -183 -149 -250 -240 -45 -60 -122 -204 -141 -261 -4
-13 -8 -26 -9 -29 -16 -45 -45 -214 -46 -270 0 -30 -6 -38 -41 -58 -55 -32
-71 -45 -159 -132 -81 -81 -88 -90 -138 -163 -41 -62 -65 -107 -55 -107 5 0 3
-4 -3 -8 -24 -17 -66 -141 -89 -262 -21 -115 -11 -342 20 -438 3 -7 5 -16 6
-20 6 -31 68 -172 85 -192 7 -8 13 -18 14 -22 2 -15 35 -68 43 -68 4 0 7 -6 7
-13 0 -7 8 -19 18 -28 9 -8 31 -32 47 -53 29 -37 127 -124 175 -156 12 -8 28
-19 34 -25 21 -18 236 -119 236 -110 0 1 21 -3 48 -11 126 -39 355 -40 495 -4
63 17 146 48 205 77 47 24 56 25 75 13 26 -16 155 -70 180 -75 9 -2 45 -11 80
-20 86 -23 248 -30 345 -16 108 16 107 16 182 42 167 58 279 127 400 249 292
292 371 738 199 1119 -37 81 -116 198 -180 265 -64 68 -198 176 -218 176 -6 0
-11 6 -11 13 -2 63 -12 172 -16 179 -3 4 -7 21 -10 36 -15 91 -105 299 -139
324 -5 4 -6 8 -2 8 4 0 -4 12 -18 27 -14 15 -25 32 -25 36 0 27 -282 267 -314
267 -3 0 -33 13 -68 29 -69 32 -171 65 -233 76 -52 9 -291 16 -299 8z"/>
</g>
</svg>
